HIERARCHY
ROOT Hips
{
	OFFSET -3.958830 18.904000 13.208200
	CHANNELS 6 Xposition Yposition Zposition Zrotation Yrotation Xrotation 
	JOINT LHipJoint
	{
		OFFSET 0.000000 0.000000 0.000000
		CHANNELS 3 Zrotation Yrotation Xrotation
		JOINT LeftUpLeg
		{
			OFFSET 1.800000 -1.400000 0.085000
			CHANNELS 3 Zrotation Yrotation Xrotation
			JOINT LeftLeg
			{
				OFFSET 2.215000 -6.000000 0.000000
				CHANNELS 3 Zrotation Yrotation Xrotation
				JOINT LeftFoot
				{
					OFFSET 2.500000 -6.900000 0.000000
					CHANNELS 3 Zrotation Yrotation Xrotation
					JOINT LeftToeBase
					{
						OFFSET 0.200000 -0.500000 1.950000
						CHANNELS 3 Zrotation Yrotation Xrotation
						End Site
						{
							OFFSET 0.000000 0.000000 0.000000
						}
					}
				}
			}
		}
	}
	JOINT RHipJoint
	{
		OFFSET 0.000000 0.000000 0.000000
		CHANNELS 3 Zrotation Yrotation Xrotation
		JOINT RightUpLeg
		{
			OFFSET -1.800000 -1.400000 0.085000
			CHANNELS 3 Zrotation Yrotation Xrotation
			JOINT RightLeg
			{
				OFFSET -2.215000 -6.000000 0.000000
				CHANNELS 3 Zrotation Yrotation Xrotation
				JOINT RightFoot
				{
					OFFSET -2.500000 -6.900000 0.000000
					CHANNELS 3 Zrotation Yrotation Xrotation
					JOINT RightToeBase
					{
						OFFSET -0.200000 -0.500000 1.950000
						CHANNELS 3 Zrotation Yrotation Xrotation
						End Site
						{
							OFFSET 0.000000 0.000000 0.000000
						}
					}
				}
			}
		}
	}
	JOINT LowerBack
	{
		OFFSET 0.000000 0.000000 0.000000
		CHANNELS 3 Zrotation Yrotation Xrotation
		JOINT Spine
		{
			OFFSET -0.087000 1.940000 -0.288900
			CHANNELS 3 Zrotation Yrotation Xrotation
			JOINT Spine1
			{
				OFFSET 0.000000 1.950000 0.060000
				CHANNELS 3 Zrotation Yrotation Xrotation
				JOINT Neck
				{
					OFFSET 0.000000 0.000000 0.000000
					CHANNELS 3 Zrotation Yrotation Xrotation
					JOINT Neck1
					{
						OFFSET 0.000000 1.600000 0.340000
						CHANNELS 3 Zrotation Yrotation Xrotation
						JOINT Head
						{
							OFFSET 0.000000 1.667000 -0.240000
							CHANNELS 3 Zrotation Yrotation Xrotation
							End Site
							{
								OFFSET 0.000000 0.000000 0.000000
							}
						}
					}
				}
				JOINT LeftShoulder
				{
					OFFSET 0.000000 0.000000 0.000000
					CHANNELS 3 Zrotation Yrotation Xrotation
					JOINT LeftArm
					{
						OFFSET 2.700000 1.550000 -0.730000
						CHANNELS 3 Zrotation Yrotation Xrotation
						JOINT LeftForeArm
						{
							OFFSET 5.450000 0.000000 0.000000
							CHANNELS 3 Zrotation Yrotation Xrotation
							JOINT LeftHand
							{
								OFFSET 3.450000 0.000000 0.000000
								CHANNELS 3 Zrotation Yrotation Xrotation
								JOINT LeftHandIndex1
								{
									OFFSET 0.750000 0.000000 0.000000
									CHANNELS 3 Zrotation Yrotation Xrotation
									End Site
									{
										OFFSET 0.000000 0.000000 0.000000
									}
								}
							}
						}
					}
				}
				JOINT RightShoulder
				{
					OFFSET 0.000000 0.000000 0.000000
					CHANNELS 3 Zrotation Yrotation Xrotation
					JOINT RightArm
					{
						OFFSET -2.700000 1.550000 -0.730000
						CHANNELS 3 Zrotation Yrotation Xrotation
						JOINT RightForeArm
						{
							OFFSET -5.450000 0.000000 0.000000
							CHANNELS 3 Zrotation Yrotation Xrotation
							JOINT RightHand
							{
								OFFSET -3.450000 0.000000 0.000000
								CHANNELS 3 Zrotation Yrotation Xrotation
								JOINT RightHandIndex1
								{
									OFFSET -0.750000 0.000000 0.000000
									CHANNELS 3 Zrotation Yrotation Xrotation
									End Site
									{
										OFFSET 0.000000 0.000000 0.000000
									}
								}
							}
						}
					}
				}
			}
		}
	}
}
MOTION
Frames: 8
Frame Time: 0.016667
-1.237310 16.368770 -2.634640 -3.933199 -29.338516 5.182053 -15.294802 11.451293 4.452688 25.265536 -5.979318 -32.568932 -11.129385 15.434057 45.708257 0.473179 9.919267 1.002942 1.032690 0.668950 0.759540 18.539825 -8.774550 3.967099 -12.293455 6.518219 -45.324577 10.509048 -12.000998 39.998888 -0.845191 -6.247029 2.245559 0.291640 -0.025420 0.370150 -4.156451 -1.932726 -8.820861 20.142533 -13.724271 37.281746 -6.071665 -6.947226 15.505467 3.363370 -1.351693 -9.717533 -4.568627 4.413218 41.565192 0.384170 3.679840 -16.599460 -3.023467 -16.731179 4.338550 0.065481 -13.747536 -8.922699 101.027461 -37.153351 -47.515939 -3.483399 3.018289 0.534560 0.000760 0.185760 0.415320 -2.913218 15.060250 4.441401 -0.344872 16.505139 -10.127516 -101.651034 44.046987 -56.864647 1.716853 -1.543692 0.119590 0.020110 -0.449600 -0.209880 
-1.197650 16.358800 -2.654210 -3.846383 -29.268270 5.170353 -15.335364 11.429005 4.584956 25.577860 -6.329598 -32.902505 -12.411934 15.844612 45.453422 0.503430 10.024813 0.965472 1.013470 0.625400 0.800710 18.507144 -8.668991 3.959402 -12.476054 6.351967 -45.675795 10.377742 -12.025552 40.054011 -0.857974 -6.203922 2.246241 0.250420 -0.079450 0.365570 -4.044047 -2.145729 -8.900005 19.522304 -14.180271 39.263629 -5.899774 -7.133193 15.010660 3.623250 -1.125233 -10.072158 -4.347169 4.002929 42.192276 -1.074600 4.137150 -18.227860 -3.747033 -17.911703 4.550846 0.087106 -13.055838 -9.655528 100.391007 -38.778755 -48.829948 -3.456293 2.944128 0.585200 -0.039790 0.220240 0.378500 -2.733100 16.039559 4.911078 0.262330 15.498832 -10.816056 -100.588715 46.632032 -58.550793 1.700390 -1.372221 0.114530 0.009410 -0.445750 -0.242970 
-1.169210 16.351710 -2.679320 -3.539320 -29.000003 4.651273 -15.382697 11.480369 4.683039 25.606285 -6.809007 -33.226361 -12.939727 16.050372 45.869163 0.513819 10.157652 0.926586 0.990640 0.591330 0.803390 18.462987 -8.597515 3.895774 -12.444437 6.020374 -45.722780 9.520667 -11.864779 40.551560 -0.850114 -6.196181 2.248821 0.235810 -0.084540 0.351180 -3.889120 -2.449291 -8.936382 18.297783 -14.233482 41.179360 -5.052595 -7.295370 14.783826 3.544392 -1.191333 -10.220038 -4.600238 3.872879 42.081353 -1.433210 4.066480 -18.967620 -3.854518 -18.432446 4.559033 -0.464780 -13.072527 -10.073940 98.852379 -40.719572 -49.772083 -3.452292 2.859220 0.610650 -0.049780 0.218910 0.358390 -2.462285 16.649412 5.164176 0.811320 14.870377 -11.385023 -100.789508 47.923441 -60.385048 1.680505 -1.271486 0.091860 0.026770 -0.427480 -0.260800 
-1.138230 16.341830 -2.680090 -3.716407 -28.555129 4.145474 -15.364732 11.458499 4.721671 25.766917 -7.145048 -33.211066 -13.143339 16.160653 46.360765 0.547527 10.247338 0.908095 0.975880 0.579180 0.789670 18.477449 -8.657718 3.829274 -12.380642 5.665383 -45.490928 8.945111 -11.892512 41.096941 -0.855391 -6.241646 2.242346 0.225630 -0.080070 0.328820 -3.930773 -2.389159 -8.921986 18.791688 -14.890214 41.961746 -5.479393 -7.655342 14.789169 3.440640 -1.421566 -10.429179 -5.213320 3.966707 42.445780 -0.428440 3.562390 -18.999870 -3.917279 -18.959550 4.583595 -0.868896 -13.094915 -10.628083 95.564054 -40.604651 -47.007013 -3.442478 2.835594 0.617710 -0.063920 0.217100 0.357930 -2.214746 17.051597 5.595619 1.606619 13.939005 -11.692371 -102.021537 48.169630 -62.360080 1.694315 -1.248538 0.082870 0.046670 -0.423670 -0.255480 
-1.116700 16.329550 -2.673420 -3.840249 -28.484759 3.309202 -15.350981 11.482063 4.714234 25.998631 -7.285299 -32.615175 -13.410931 16.395286 46.719558 0.536351 10.390842 0.860248 0.950410 0.531970 0.770960 18.481264 -8.710104 3.769735 -12.589734 5.407546 -44.850738 9.165148 -12.174167 41.464841 -0.870519 -6.352373 2.195894 0.215370 -0.068370 0.318250 -3.953029 -2.378029 -8.898543 18.822416 -15.203114 42.630599 -5.716479 -7.934319 14.915628 3.274893 -1.886241 -10.591999 -6.248736 4.397756 42.857818 0.658790 3.113920 -19.239020 -3.755439 -19.010220 4.631167 -1.051675 -12.494072 -10.923192 93.559545 -40.685783 -45.566358 -3.445193 2.809215 0.657990 -0.075380 0.204970 0.342290 -2.038659 17.253941 5.845708 1.787666 13.289880 -11.857676 -103.097322 48.552482 -64.064169 1.685767 -1.212704 0.047070 0.065950 -0.391090 -0.272190 
-1.099700 16.315010 -2.655780 -3.847957 -28.340431 2.026036 -15.343934 11.645464 4.613462 25.587671 -7.489105 -31.692231 -12.461081 16.194358 47.797439 0.526970 10.473193 0.844236 0.924210 0.496960 0.758550 18.461930 -8.797777 3.685791 -12.714734 5.005872 -43.892721 9.085262 -12.422934 42.101095 -0.877621 -6.494161 2.150597 0.212380 -0.038480 0.299890 -3.897614 -2.516451 -8.829445 18.330329 -15.211494 43.190979 -5.373693 -8.209131 15.256229 3.157547 -2.320748 -10.525613 -7.107217 4.536657 42.461258 1.047400 2.596630 -19.123650 -3.379252 -18.463388 4.575479 -1.593003 -12.190234 -10.903933 92.667609 -41.150773 -45.459448 -3.467561 2.765253 0.660420 -0.065390 0.177520 0.326530 -2.115535 16.978554 5.790579 1.155544 12.733955 -11.909673 -103.908050 48.841198 -65.273414 1.680451 -1.186510 0.016890 0.101270 -0.361330 -0.278790 
-1.098280 16.300500 -2.635340 -3.817699 -28.227593 0.373198 -15.314472 11.800779 4.491182 25.464439 -7.442323 -30.087868 -12.004932 16.204364 48.331209 0.504518 10.569973 0.813433 0.898110 0.460950 0.731320 18.456156 -8.963888 3.570990 -12.563751 4.706492 -42.602370 8.280591 -12.478897 43.313183 -0.891517 -6.671810 2.097909 0.213300 -0.002390 0.290360 -3.891047 -2.507617 -8.744665 17.930553 -14.916602 43.357789 -5.386161 -8.261231 15.805795 2.971644 -2.373870 -10.437697 -7.271745 4.430291 42.491544 1.857740 1.966150 -18.882960 -2.770026 -18.025479 4.382576 -1.164803 -12.195978 -10.735267 91.264146 -42.054253 -45.151806 -3.487458 2.715248 0.671960 -0.048520 0.147750 0.315090 -2.295825 16.513712 5.859351 1.201635 12.117839 -11.866098 -104.584830 48.750410 -66.012552 1.664014 -1.184654 -0.017310 0.131950 -0.323530 -0.286930 
-1.097670 16.300240 -2.600370 -4.028557 -28.259679 -1.421461 -15.283995 12.065226 4.347454 25.249803 -7.344242 -28.191753 -11.081323 15.984092 48.995509 0.497665 10.579030 0.792318 0.885780 0.438340 0.723320 18.431005 -9.161956 3.416980 -12.205318 4.389709 -40.606456 7.646022 -12.446663 44.020712 -0.918189 -6.735579 2.070857 0.195740 -0.021530 0.295760 -3.831064 -2.626046 -8.646031 17.416677 -14.555217 43.591965 -5.049985 -8.226588 16.102718 2.867487 -2.426357 -10.616288 -7.773898 4.358876 43.972776 2.560970 1.511700 -19.741930 -2.743122 -18.051419 4.420500 -0.453653 -11.777694 -10.691299 90.811523 -42.610023 -45.105442 -3.477494 2.691624 0.710330 -0.072030 0.163070 0.295900 -2.084248 16.569569 6.076873 0.202797 10.736031 -12.006057 -104.911687 48.938168 -66.203697 1.664469 -1.153808 -0.019750 0.124950 -0.302460 -0.297920 
